<svg id="emtV24TqafE1" xmlns="http://www.w3.org/2000/svg" xmlns:xlink="http://www.w3.org/1999/xlink" viewBox="0 0 6666.6665 3752.3201" shape-rendering="geometricPrecision" text-rendering="geometricPrecision"><g transform="matrix(1.33333 0 0-1.33333 0 3752.32)"><g transform="matrix(.1 0 0 0.1 0 0)"><path d="M10563.5,933.699C25517.6,15495,33183,15591.8,38739.1,11048.8c2465.6-2016,4515.6-4945.2,6603.3-7928.3c510.8-729.9,1024-1463,1545.9-2186.801h-16.8C46351.3,1655.1,45840,2385.7,45330.9,3113.1c-2087.2,2982.3-4136.6,5910.7-6600.7,7925.6C33180.7,15576.3,25523,15478.6,10582.9,933.699h-19.4ZM50000,15292v-15.8c-6618.9,4148.2-16960,8705.7-26781.4,10779.1-5562.1,1174.2-10957.2,1551.6-15414.17,606.6C4636.7,25990.3,1943.13,24650.3,0,22453.6v20.7C1944.32,24666.2,4636.51,26004,7801.51,26675c4459.09,945.4,9856.09,567.9,15419.99-606.6c9819.2-2073,20157.9-6628.5,26778.5-10776.4Zm0-884.5v-16.1c-6226.9,3978-15620.7,8395.8-24778.5,10650.5-5681.7,1398.8-11272.2,1965-15958.28,1076.6C5415.54,25389,2177.88,23678.5,0,20643.2v23.5c2179.91,3028.5,5416.03,4736,9260.59,5464.9c4688.21,888.8,10280.81,322.6,15964.41-1076.8c9155.4-2254.1,18546.9-6670,24775-10647.3Zm0-884v-16c-5839.1,3804.3-14344.9,8067.4-22829.5,10469.9-5776.7,1635.7-11543.3,2408.8-16450.8,1587.2C6193.92,24806.8,2398.75,22692.5,0,18647.2v26.8c2401.63,4036,6195.1,6146.6,10717.4,6903.7c4909.8,822.1,10678.4,48.7,16457-1587.5c8482.3-2401.8,16985.7-6663,22825.6-10466.7Zm0-882.9v-16.2C44537.3,16256.1,36849.8,20355.9,29031,22871c-5842.3,1879.3-11757.6,2873.8-16872.3,2126.9-5113.55-746.7-9426.81-3234.3-12066.2586-8319-31.0742-59.8-61.8008-120.2-92.4414-180.7v30.4c26.5391,52.3,53.1992,104.5,80.082,156.3C2721.86,21774.1,7038.81,24263.8,12156.7,25011.1c5116.9,747.2,11034.4-247.6,16878.6-2127.5c7816.5-2514.3,15501.6-6612,20964.7-10243Zm0-882.2v-16.3c-7517.1,5102.4-19028.5,11224.7-29390.3,12582.3-3554.1,465.7-6972.9,370.8-10048.6-518.2-3075.27-888.8-5807.71-2571.7-7989.59-5282C1598.79,17315.9,735.543,15903.2,0,14265.8v33.8c733.203,1626.4,1592.8,3030.6,2560.62,4232.8c2183.73,2712.6,4918.54,4397,7996.58,5286.7c3077.6,889.5,6498.3,984.5,10054.3,518.6c10360.7-1357.6,21869.9-7477,29388.5-12579.3Zm0-881.1v-16.5c-7048.7,4887.9-17405.4,10796.5-27116.4,12566.7-3786.1,690.1-7473.9,751.1-10828.9-123-3354.71-873.9-6376.74-2682.8-8831.75-5732.3C1997.7,16050.2,913.734,14218.9,0,12040.7v35.5c911.52,2165.9,1991.71,3988.3,3212.03,5504.2c2456.98,3052,5481.59,4862.4,8839.07,5737c3357.1,874.6,7047,813.6,10835,123.2c9709.7-1769.9,20064.2-7675.7,27113.9-12563.3Zm0-879.9v-16.6C43062.9,14898.3,33131.5,20932,23669.2,22757.9C14108,24602.9,5026.57,22150,0,9905v35.7C5032,22166.7,14112.2,24615.8,23672,22771c9460.9-1825.7,19390.1-7856.4,26328-12773.6Zm0-878.8v-16.7c-6806.8,4935.9-16281.9,11076.8-25475.4,12973.9C14921.1,24057.4,5625.46,21405.1,0,7909.6v35.5C5629.87,21422,14924.7,24070.3,24527.4,22088.8C33719.9,20192,43192.7,14054.2,50000,9118.6Zm0-877.5v-16.9c-5880.3,4365-13581.3,9733-21433.6,12294.4C17945.1,23983.1,7046.63,22309.1,0,6071.6v34.4C7050.69,22325.2,17949.2,23995.9,28570.7,20531.3C36421.5,17970.4,44120,12605.5,50000,8241.1Zm0-876.4v-17c-5575.2,4239.7-12622.8,9480.7-19943.6,12197.6C19379.2,23508.1,8120.4,22098.7,0,4382.5v32.6C8123.53,22114.5,19382.9,23521,30061.4,19557.8c7319-2716.4,14364.1-7954,19938.6-12193.1Zm0-874.9v-17.2c-172.7,134.7-346.7,270.5-522,407.2-5211.4,4066.2-11499.6,8972.5-18122,11718.7C20746,22998.4,9276.98,21849.9,0,2818.5v31.3c9279.19,19016.1,20749.5,20161.7,31361.5,15761c6624.1-2747,12913-7653.9,18125.2-11720.6c172.3-134.4,343.4-267.9,513.3-400.4Zm0-873.4v-17.4c-504.6,403.8-1018.3,817.5-1540.6,1238.2-4741.2,3819-10190.2,8208.1-15978.1,10852.6C22037.7,22461.7,10489.3,21550.4,0,1361v29.9c10490.8,20175.8,22041.1,21084,32487.2,16311c5789.5-2645.4,11239.2-7035,15981.1-10854.5c519.2-418.2,1030-829.5,1531.7-1231Zm0-871.8v-17.5c-768.3,631.4-1553.8,1288.4-2355.6,1959-4307,3602.3-9084.2,7597.9-14192.3,10141.1C23406.8,21828.5,12080.4,21210.2,530.52,933.699h-15.809C12071,21225.7,23405.6,21844.1,33458.5,16839c5109.4-2543.8,9887.3-6540,14194.9-10142.8c798.7-668,1581.1-1322.4,2346.6-1951.6Zm0-870v-17.7c-981.1,829-1983.4,1703.8-3007.1,2597.2-3919,3420.3-8151.1,7113.9-12702.8,9561C24743.4,21147.5,13788.9,20795.5,1363.74,933.699h-16.1C13780.2,20811.2,24742.7,21163.2,34296.8,16026.7c4553-2447.8,8785.8-6141.9,12705.3-9562.7c1020.5-890.6,2019.7-1762.7,2997.9-2589.4Zm0-868.1v-18c-1154,1003.8-2327.3,2077-3523.6,3171.3-3578.2,3273-7363.3,6735.2-11458.6,9094.9-9030.3,5203.2-19572.2,5044-32740.68-14321.001h-16.49C15437.3,20314.6,25987.3,20473.6,35024.9,15266.2c4096.7-2360.6,7882.3-5823.3,11461-9096.8C47679,5078.1,48849,4007.9,50000,3006.5Zm0-866v-18.2c-1294.6,1160.5-2599.5,2416.6-3926.2,3693.6-3281.3,3158.7-6695.7,6445.5-10416,8728.6C27152.3,19764.1,17044.7,19733.7,3264.73,933.699h-16.93C17036.9,19749.8,27152.5,19779.8,35665.2,14555.8c3721.5-2283.8,7136.5-5571.2,10418.4-8730.4c1323.3-1273.9,2625-2526.9,3916.4-3684.9Zm0-863.6v-18.5C48591.7,2561,47189.1,3987.5,45768.8,5432.2c-3022.8,3074.5-6126.2,6231.1-9537,8448.4C28251.6,19068.3,18585,19110.8,4323.26,933.699h-17.32C18577.6,19127.1,28252.2,19084,36239.5,13891.6c3412.2-2218.1,6516.1-5375.2,9539.3-8450.2c1417-1441.3,2816.3-2864.5,4221.2-4164.5Zm-534-343.201h-19.3C48138.1,2221.1,46847.8,3613.3,45548.4,5015.5C42752.5,8032.4,39914,11095.3,36760,13257.3C29298.7,18371.8,20068,18440.6,5449.68,933.699h-17.72C20061.1,18456.9,29299.6,18387.5,36768,13268.1c3155.1-2162.7,5994.2-5226.2,8790.7-8243.7C46861.1,3618.9,48154.4,2223.5,49466,933.699Zm-802.2,0h-18.7C47551.5,2100.8,46478,3334.7,45402.2,4571.4c-2594.5,2982.4-5203.2,5981.1-8142,8096.7C30305.6,17674.6,21497.7,17733.2,6641.38,933.699h-18.26C21491.2,17749.7,30306.8,17690.4,37268.4,12678.8c2940.1-2116.5,5549.3-5115.7,8144.5-8098.8c1078.4-1239.7,2154.5-2476.7,3250.9-3646.301Zm-696.3,0h-18C47061.3,1964.6,46191.1,3035,45321.8,4104.1c-2412.7,2967.5-4817.7,5925.4-7574.3,8002.2-6464.9,4870.4-14868.2,4892-29851.87-11172.601h-18.55C22873.2,17014.7,31284.3,16992.3,37756,12116.7c2758.1-2077.8,5163.5-5036.3,7576.7-8004.3c871.6-1072,1744.2-2145.3,2634.8-3178.701Zm-591.3,0h-17.4C46662.8,1815.3,45980.3,2717.7,45300,3617.1c-2245,2968.4-4465.3,5904.3-7065.7,7948C32238.7,16277.4,24218.9,16244.3,9210.22,933.699h-18.97C24213.1,16260.7,32240.7,16292.9,38243,11575.4c2601.7-2044.7,4822.7-4981.3,7068.2-7950.4c682.2-902.2,1366.8-1807.3,2065-2691.301" fill="#d4d4d8"/></g></g></svg>
